<svg xmlns="http://www.w3.org/2000/svg" width="1400" height="900" viewBox="0 0 1400 900">
 <defs><marker id="arrow" markerWidth="10" markerHeight="10" refX="8" refY="3" orient="auto"><path d="M0,0 L0,6 L9,3 z" fill="#24594b"/></marker><style>.box{fill:#fff;stroke:#24594b;stroke-width:2}.dark{fill:#173e34}.vendor{fill:#f4efe5;stroke:#c5bda9;stroke-width:2}.t{font:600 22px Arial;fill:#16352e}.s{font:15px Arial;fill:#68736e}.w{fill:#fff}.line{stroke:#24594b;stroke-width:3;fill:none;marker-end:url(#arrow)}.dash{stroke-dasharray:9 7}</style></defs>
 <rect width="1400" height="900" fill="#fbf9f3"/><text x="70" y="70" class="t" style="font-size:34px">Whosder Ghana Stays · Website Architecture &amp; Data Flow</text><text x="70" y="104" class="s">Secure short-term rental platform for owner-managed properties in Accra, Ghana</text>
 <rect x="70" y="180" width="250" height="150" rx="8" class="box"/><text x="105" y="225" class="t">Guest GUI</text><text x="105" y="260" class="s">Browse &amp; filter homes</text><text x="105" y="287" class="s">Select dates / guests</text><text x="105" y="314" class="s">Account &amp; bookings</text>
 <rect x="70" y="555" width="250" height="150" rx="8" class="box"/><text x="105" y="600" class="t">Admin GUI</text><text x="105" y="635" class="s">Property CRUD</text><text x="105" y="662" class="s">Availability &amp; rates</text><text x="105" y="689" class="s">Media sync status</text>
 <rect x="515" y="300" width="350" height="260" rx="8" class="dark"/><text x="555" y="347" class="t w">Application API</text><text x="555" y="385" class="s w">Authentication &amp; authorization</text><text x="555" y="418" class="s w">Property / booking service</text><text x="555" y="451" class="s w">Availability &amp; pricing</text><text x="555" y="484" class="s w">Payment orchestration</text><text x="555" y="517" class="s w">Media sync worker + webhooks</text>
 <rect x="1080" y="150" width="250" height="135" rx="8" class="box"/><text x="1120" y="197" class="t">Database</text><text x="1120" y="232" class="s">Users · properties</text><text x="1120" y="259" class="s">Bookings · payment tokens</text>
 <rect x="1080" y="365" width="250" height="135" rx="8" class="vendor"/><text x="1120" y="412" class="t">Payment Vendor</text><text x="1120" y="447" class="s">Cards · MTN MoMo</text><text x="1120" y="474" class="s">Telecel · token vault</text>
 <rect x="1080" y="580" width="250" height="135" rx="8" class="vendor"/><text x="1120" y="627" class="t">Airbnb / PMS</text><text x="1120" y="662" class="s">Authorized API feed</text><text x="1120" y="689" class="s">Images · videos · listing IDs</text>
 <path d="M320 255 C400 255 410 350 515 350" class="line"/><text x="355" y="270" class="s">1. Search / reserve</text><path d="M320 625 C410 625 415 510 515 510" class="line"/><text x="356" y="610" class="s">CRUD + sync</text>
 <path d="M865 350 C955 350 970 220 1080 220" class="line"/><path d="M1080 255 C970 255 955 400 865 400" class="line dash"/><text x="900" y="245" class="s">2. Read/write</text>
 <path d="M865 445 L1080 435" class="line"/><text x="900" y="424" class="s">3. Create checkout</text><path d="M1080 470 C980 520 955 500 865 490" class="line dash"/><text x="910" y="530" class="s">4. Signed webhook</text>
 <path d="M865 520 C960 560 980 635 1080 645" class="line"/><text x="910" y="600" class="s">Scheduled media sync</text><path d="M1080 680 C965 725 930 570 865 550" class="line dash"/>
 <text x="70" y="820" class="s">Trust boundaries: guests never send raw card/mobile-money credentials to the app server. The payment vendor hosts fields and returns tokens.</text><text x="70" y="850" class="s">Airbnb media ingestion requires an authorized API, partner integration, or channel manager; avoid HTML scraping.</text>
</svg>
